<svg xmlns="http://www.w3.org/2000/svg" xmlns:xlink="http://www.w3.org/1999/xlink" width="2380" zoomAndPan="magnify" viewBox="0 0 1784.88 1784.99993" height="2380" preserveAspectRatio="xMidYMid meet" version="1.0"><defs><g/><clipPath id="26b660b0e8"><path d="M 542 1463 L 1289 1463 L 1289 1572.164062 L 542 1572.164062 Z M 542 1463 " clip-rule="nonzero"/></clipPath></defs><g clip-path="url(#26b660b0e8)"><path fill="#e3e2e3" d="M 915.355469 1463.667969 C 1121.398438 1463.667969 1288.492188 1487.957031 1288.492188 1517.914062 C 1288.492188 1547.867188 1121.398438 1572.15625 915.355469 1572.15625 C 709.316406 1572.15625 542.21875 1547.867188 542.21875 1517.914062 C 542.21875 1487.957031 709.316406 1463.667969 915.355469 1463.667969 Z M 915.355469 1463.667969 " fill-opacity="1" fill-rule="evenodd"/></g><path fill="#1e456a" d="M 1050.394531 666.03125 C 871.910156 741.097656 774.90625 608.320312 654.835938 581.183594 C 533.488281 553.769531 464.070312 634.550781 455.5 737.804688 C 437.820312 950.792969 581.605469 1330.570312 675.699219 1466.695312 C 740.996094 1561.160156 819.472656 1506.644531 829.363281 1404.488281 C 840.398438 1290.5 895.550781 1202.773438 996.898438 1282.6875 C 934.238281 1159.410156 806.753906 1198.292969 777.128906 1336.023438 C 762.859375 1402.339844 732.488281 1420.898438 693.347656 1343.316406 C 633.011719 1223.742188 471.8125 846.636719 592.097656 710.917969 C 695.332031 594.4375 859.066406 816.859375 1050.394531 666.03125 Z M 1050.394531 666.03125 " fill-opacity="1" fill-rule="evenodd"/><path fill="#00a1df" d="M 836.179688 746.523438 C 1042.035156 829.574219 1164.277344 563.324219 1308.839844 625.785156 C 1493.746094 705.664062 1252.914062 1273.90625 1161.855469 1463.410156 C 1123.988281 1542.230469 1026.578125 1545.515625 1002.980469 1467.613281 C 949.753906 1291.894531 939.457031 1076.054688 621.363281 983.164062 C 973.429688 1034.011719 1009.253906 1205.671875 1038.726562 1320.5 C 1070.214844 1443.171875 1091.101562 1458.488281 1142.105469 1328.195312 C 1182.972656 1223.808594 1281.320312 957.226562 1279.992188 808.523438 C 1279.21875 722.445312 1227.523438 700.195312 1140.625 751.097656 C 1079.128906 787.113281 953.070312 829.722656 836.179688 746.523438 Z M 836.179688 746.523438 " fill-opacity="1" fill-rule="evenodd"/><path fill="#e3e2e3" d="M 110.722656 1368.554688 C 109.996094 1368.859375 109.246094 1369.085938 108.476562 1369.238281 C 107.707031 1369.394531 106.929688 1369.472656 106.144531 1369.476562 C 105.355469 1369.476562 104.578125 1369.402344 103.808594 1369.25 C 103.035156 1369.101562 102.289062 1368.875 101.558594 1368.578125 C 100.832031 1368.28125 100.140625 1367.914062 99.484375 1367.484375 C 98.832031 1367.050781 98.222656 1366.558594 97.664062 1366.003906 C 97.105469 1365.453125 96.605469 1364.851562 96.164062 1364.199219 C 95.722656 1363.550781 95.351562 1362.863281 95.042969 1362.140625 C 88.433594 1345.894531 82.324219 1329.460938 76.71875 1312.839844 C 71.113281 1296.21875 66.019531 1279.445312 61.441406 1262.515625 C 56.859375 1245.582031 52.800781 1228.527344 49.261719 1211.347656 C 45.726562 1194.167969 42.714844 1176.898438 40.234375 1159.535156 C 37.753906 1142.171875 35.804688 1124.75 34.386719 1107.265625 C 32.96875 1089.785156 32.085938 1072.273438 31.742188 1054.738281 C 31.394531 1037.203125 31.585938 1019.671875 32.308594 1002.148438 C 33.035156 984.621094 34.292969 967.136719 36.089844 949.6875 C 37.882812 932.242188 40.207031 914.863281 43.0625 897.558594 C 45.921875 880.253906 49.300781 863.050781 53.210938 845.953125 C 57.117188 828.851562 61.542969 811.890625 66.488281 795.0625 C 71.433594 778.234375 76.890625 761.570312 82.851562 745.078125 C 88.816406 728.582031 95.277344 712.285156 102.238281 696.183594 C 109.195312 680.085938 116.640625 664.214844 124.570312 648.570312 C 132.5 632.925781 140.902344 617.535156 149.773438 602.40625 C 158.644531 587.273438 167.96875 572.425781 177.746094 557.867188 C 187.523438 543.304688 197.738281 529.054688 208.386719 515.121094 C 219.035156 501.183594 230.101562 487.585938 241.582031 474.324219 C 253.0625 461.0625 264.9375 448.164062 277.207031 435.632812 C 289.476562 423.097656 302.113281 410.949219 315.125 399.1875 C 328.136719 387.425781 341.496094 376.070312 355.203125 365.125 C 368.90625 354.179688 382.933594 343.664062 397.285156 333.578125 C 411.632812 323.488281 426.273438 313.847656 441.214844 304.65625 C 456.152344 295.464844 471.355469 286.738281 486.828125 278.472656 C 502.296875 270.210938 518.007812 262.425781 533.953125 255.125 C 549.902344 247.820312 566.058594 241.011719 582.421875 234.699219 C 598.785156 228.382812 615.324219 222.574219 632.042969 217.269531 C 648.761719 211.964844 665.625 207.175781 682.636719 202.902344 C 699.648438 198.628906 716.773438 194.878906 734.015625 191.652344 C 751.253906 188.429688 768.578125 185.730469 785.984375 183.5625 C 803.390625 181.398438 820.84375 179.761719 838.347656 178.664062 C 855.855469 177.5625 873.375 177 890.917969 176.96875 C 908.457031 176.941406 925.980469 177.445312 943.488281 178.488281 C 960.996094 179.53125 978.457031 181.105469 995.871094 183.214844 C 1013.28125 185.324219 1030.613281 187.964844 1047.867188 191.132812 C 1065.117188 194.304688 1082.253906 197.996094 1099.28125 202.214844 C 1116.304688 206.429688 1133.1875 211.164062 1149.921875 216.410156 C 1166.65625 221.660156 1183.21875 227.414062 1199.601562 233.675781 C 1215.984375 239.9375 1232.164062 246.691406 1248.136719 253.941406 C 1264.105469 261.191406 1279.839844 268.921875 1295.339844 277.136719 C 1310.839844 285.347656 1326.070312 294.023438 1341.039062 303.167969 C 1356.007812 312.308594 1370.683594 321.902344 1385.066406 331.941406 C 1399.445312 341.980469 1413.507812 352.453125 1427.25 363.351562 C 1440.992188 374.25 1454.386719 385.5625 1467.4375 397.277344 C 1480.488281 408.996094 1493.167969 421.105469 1505.480469 433.597656 C 1517.789062 446.089844 1529.707031 458.949219 1541.230469 472.171875 C 1552.757812 485.394531 1563.867188 498.957031 1574.5625 512.859375 C 1585.257812 526.757812 1595.519531 540.972656 1605.34375 555.503906 C 1615.171875 570.03125 1624.542969 584.847656 1633.464844 599.949219 C 1642.386719 615.050781 1650.835938 630.410156 1658.820312 646.027344 C 1666.800781 661.648438 1674.296875 677.496094 1681.3125 693.570312 C 1688.324219 709.648438 1694.839844 725.921875 1700.855469 742.398438 C 1706.875 758.875 1712.382812 775.515625 1717.386719 792.328125 C 1722.386719 809.140625 1726.867188 826.089844 1730.832031 843.175781 C 1734.796875 860.261719 1738.238281 877.453125 1741.148438 894.746094 C 1744.0625 912.042969 1746.445312 929.414062 1748.296875 946.855469 C 1750.148438 964.296875 1751.46875 981.777344 1752.25 999.300781 C 1753.035156 1016.820312 1753.28125 1034.351562 1752.992188 1051.890625 C 1752.703125 1069.425781 1751.882812 1086.9375 1750.523438 1104.425781 C 1749.164062 1121.914062 1747.273438 1139.339844 1744.847656 1156.714844 C 1742.421875 1174.085938 1739.46875 1191.367188 1735.988281 1208.554688 C 1732.507812 1225.746094 1728.507812 1242.816406 1723.980469 1259.761719 C 1719.457031 1276.707031 1714.421875 1293.5 1708.871094 1310.136719 C 1703.320312 1326.777344 1697.265625 1343.230469 1690.710938 1359.496094 C 1690.40625 1360.222656 1690.035156 1360.910156 1689.59375 1361.5625 C 1689.15625 1362.214844 1688.660156 1362.816406 1688.101562 1363.371094 C 1687.542969 1363.925781 1686.9375 1364.421875 1686.285156 1364.855469 C 1685.628906 1365.289062 1684.941406 1365.660156 1684.214844 1365.957031 C 1683.488281 1366.257812 1682.738281 1366.484375 1681.96875 1366.640625 C 1681.199219 1366.792969 1680.417969 1366.867188 1679.632812 1366.871094 C 1678.847656 1366.871094 1678.070312 1366.792969 1677.300781 1366.644531 C 1676.527344 1366.492188 1675.78125 1366.265625 1675.050781 1365.964844 L 1475.515625 1282.289062 C 1474.78125 1281.992188 1474.082031 1281.621094 1473.417969 1281.183594 C 1472.757812 1280.742188 1472.144531 1280.246094 1471.582031 1279.683594 C 1471.015625 1279.125 1470.515625 1278.515625 1470.070312 1277.855469 C 1469.628906 1277.195312 1469.257812 1276.5 1468.953125 1275.765625 C 1468.648438 1275.03125 1468.417969 1274.277344 1468.265625 1273.496094 C 1468.109375 1272.71875 1468.035156 1271.929688 1468.035156 1271.136719 C 1468.035156 1270.34375 1468.117188 1269.554688 1468.273438 1268.777344 C 1468.429688 1268 1468.664062 1267.246094 1468.96875 1266.511719 C 1473.621094 1254.792969 1477.90625 1242.945312 1481.832031 1230.96875 C 1485.761719 1218.988281 1489.316406 1206.902344 1492.507812 1194.707031 C 1495.699219 1182.511719 1498.511719 1170.230469 1500.953125 1157.863281 C 1503.394531 1145.496094 1505.457031 1133.066406 1507.140625 1120.570312 C 1508.824219 1108.078125 1510.125 1095.546875 1511.042969 1082.972656 C 1511.964844 1070.402344 1512.5 1057.8125 1512.652344 1045.207031 C 1512.800781 1032.605469 1512.570312 1020.003906 1511.953125 1007.414062 C 1511.339844 994.824219 1510.339844 982.265625 1508.957031 969.734375 C 1507.574219 957.203125 1505.8125 944.726562 1503.671875 932.304688 C 1501.527344 919.882812 1499.011719 907.539062 1496.113281 895.269531 C 1493.21875 883 1489.953125 870.832031 1486.316406 858.761719 C 1482.679688 846.691406 1478.679688 834.742188 1474.3125 822.917969 C 1469.949219 811.089844 1465.226562 799.410156 1460.148438 787.871094 C 1455.074219 776.332031 1449.648438 764.960938 1443.878906 753.753906 C 1438.109375 742.546875 1432 731.523438 1425.558594 720.6875 C 1419.117188 709.855469 1412.347656 699.226562 1405.257812 688.800781 C 1398.167969 678.378906 1390.765625 668.183594 1383.054688 658.210938 C 1375.34375 648.238281 1367.335938 638.511719 1359.03125 629.027344 C 1350.722656 619.546875 1342.136719 610.324219 1333.269531 601.363281 C 1324.402344 592.402344 1315.273438 583.722656 1305.875 575.320312 C 1296.480469 566.917969 1286.835938 558.808594 1276.945312 550.992188 C 1267.054688 543.175781 1256.933594 535.667969 1246.585938 528.472656 C 1236.238281 521.273438 1225.679688 514.394531 1214.910156 507.839844 C 1204.144531 501.285156 1193.1875 495.066406 1182.039062 489.179688 C 1170.894531 483.292969 1159.578125 477.75 1148.09375 472.554688 C 1136.609375 467.355469 1124.976562 462.515625 1113.195312 458.027344 C 1101.414062 453.539062 1089.511719 449.414062 1077.480469 445.652344 C 1065.445312 441.890625 1053.3125 438.496094 1041.074219 435.476562 C 1028.835938 432.453125 1016.515625 429.804688 1004.117188 427.535156 C 991.71875 425.261719 979.261719 423.371094 966.746094 421.859375 C 954.230469 420.347656 941.683594 419.21875 929.097656 418.472656 C 916.515625 417.726562 903.921875 417.363281 891.3125 417.382812 C 878.707031 417.402344 866.113281 417.808594 853.535156 418.597656 C 840.953125 419.386719 828.40625 420.554688 815.898438 422.109375 C 803.386719 423.664062 790.9375 425.597656 778.546875 427.910156 C 766.152344 430.222656 753.84375 432.910156 741.613281 435.972656 C 729.386719 439.035156 717.261719 442.464844 705.246094 446.269531 C 693.226562 450.070312 681.332031 454.234375 669.570312 458.761719 C 657.804688 463.289062 646.1875 468.167969 634.71875 473.402344 C 623.253906 478.640625 611.957031 484.21875 600.828125 490.140625 C 589.699219 496.066406 578.765625 502.324219 568.019531 508.914062 C 557.273438 515.503906 546.738281 522.414062 536.414062 529.648438 C 526.089844 536.878906 515.992188 544.421875 506.128906 552.269531 C 496.265625 560.117188 486.648438 568.257812 477.277344 576.691406 C 467.910156 585.125 458.808594 593.835938 449.96875 602.828125 C 441.132812 611.816406 432.574219 621.066406 424.300781 630.578125 C 416.027344 640.085938 408.050781 649.839844 400.375 659.835938 C 392.695312 669.835938 385.328125 680.054688 378.269531 690.503906 C 371.214844 700.949219 364.484375 711.601562 358.078125 722.457031 C 351.671875 733.3125 345.601562 744.355469 339.867188 755.582031 C 334.132812 766.808594 328.746094 778.199219 323.707031 789.753906 C 318.667969 801.308594 313.988281 813.003906 309.660156 824.84375 C 305.335938 836.683594 301.375 848.644531 297.777344 860.726562 C 294.179688 872.808594 290.953125 884.988281 288.097656 897.269531 C 285.246094 909.546875 282.765625 921.902344 280.667969 934.332031 C 278.566406 946.757812 276.84375 959.242188 275.503906 971.777344 C 274.164062 984.308594 273.207031 996.875 272.632812 1009.464844 C 272.058594 1022.058594 271.867188 1034.65625 272.058594 1047.261719 C 272.253906 1059.867188 272.832031 1072.453125 273.792969 1085.023438 C 274.753906 1097.589844 276.09375 1110.121094 277.820312 1122.605469 C 279.542969 1135.09375 281.648438 1147.519531 284.128906 1159.875 C 286.613281 1172.234375 289.46875 1184.507812 292.699219 1196.691406 C 295.929688 1208.878906 299.527344 1220.953125 303.492188 1232.917969 C 307.457031 1244.882812 311.785156 1256.71875 316.472656 1268.417969 C 316.78125 1269.152344 317.015625 1269.90625 317.175781 1270.683594 C 317.335938 1271.460938 317.417969 1272.246094 317.421875 1273.042969 C 317.429688 1273.835938 317.355469 1274.621094 317.203125 1275.402344 C 317.050781 1276.183594 316.824219 1276.9375 316.523438 1277.671875 C 316.21875 1278.410156 315.847656 1279.105469 315.410156 1279.765625 C 314.96875 1280.429688 314.46875 1281.039062 313.90625 1281.601562 C 313.34375 1282.164062 312.734375 1282.664062 312.074219 1283.105469 C 311.414062 1283.546875 310.714844 1283.917969 309.980469 1284.21875 Z M 110.722656 1368.554688 " fill-opacity="1" fill-rule="nonzero"/><g fill="#00a1df" fill-opacity="1"><g transform="translate(264.737142, 1305.361511)"><g><path d="M -17.296875 -58.390625 L -15.671875 -50.390625 L -13.953125 -46.796875 L -7.25 -23.609375 L -5.71875 -19.953125 L -6.4375 -15.59375 L -11.703125 -11.90625 L -21.359375 -8.953125 L -24.828125 -7.484375 L -130.546875 24.75 L -135.03125 24.265625 L -138.015625 20.625 L -138.96875 16.796875 L -140.578125 13.578125 L -153.4375 -29.65625 L -155.15625 -41.3125 L -155.421875 -45.578125 L -154.90625 -49.25 L -155.296875 -53.25 L -154.328125 -57.5 L -150.859375 -69.09375 L -142.765625 -82.53125 L -134.734375 -92.046875 L -131.59375 -94.65625 L -125.1875 -99.296875 L -111.046875 -106.546875 L -105.625 -108.40625 L -99.40625 -109.703125 L -95.453125 -110.921875 L -91.5 -111.5 L -87.9375 -111.359375 L -83.734375 -111.828125 L -79.84375 -111.984375 L -71.546875 -111.21875 L -67.828125 -109.875 L -63.46875 -109.15625 L -48.71875 -103.546875 L -36.328125 -93.484375 L -29.828125 -85.765625 L -26.125 -78.421875 L -22.75 -73.453125 L -21.59375 -69.6875 L -19.03125 -64.046875 Z M -48.109375 -48.3125 L -50.046875 -53.921875 L -53.484375 -61.75 L -56.859375 -66.703125 L -63 -71.875 L -73.0625 -76.421875 L -81.0625 -77.484375 L -94.859375 -75.3125 L -110.578125 -67.203125 L -113.4375 -64.453125 L -116.0625 -61.5625 L -118.609375 -57.703125 L -120.390625 -54.046875 L -121.578125 -50.5625 L -122.234375 -46.640625 L -122.078125 -38.640625 L -120.953125 -32.984375 L -118.328125 -25.125 L -115.15625 -19.46875 L -110.21875 -18.90625 L -106.890625 -19.515625 L -80.921875 -27.890625 L -71.265625 -30.046875 L -62.21875 -33.625 L -54.421875 -35.84375 L -51.265625 -37 L -48.125 -39.609375 L -47.375 -44.59375 Z M -48.109375 -48.3125 "/></g></g></g><g fill="#00a1df" fill-opacity="1"><g transform="translate(227.403937, 1184.341942)"><g><path d="M -8.59375 -68.265625 L -8.453125 -64.296875 L -7.53125 -60.421875 L -7.125 -55.890625 L -7.40625 -52.0625 L -5.734375 -44.109375 L -5.453125 -40.5625 L -4.484375 -36.296875 L -2.78125 -22.171875 L -4.546875 -15.953125 L -9.625 -13.65625 L -13.875 -12.703125 L -27.46875 -11.453125 L -31.3125 -10.359375 L -35.09375 -10.234375 L -66.84375 -6.15625 L -70.296875 -5.109375 L -86.390625 -3.125 L -90.15625 -3.015625 L -94.203125 -1.890625 L -113.46875 0.328125 L -117.6875 1.484375 L -125.796875 1.984375 L -133.1875 3.359375 L -137.609375 1.78125 L -139.71875 -2.125 L -140.046875 -6.078125 L -140.96875 -9.953125 L -141.046875 -13.53125 L -142.328125 -17.140625 L -142.28125 -21.140625 L -144.828125 -37.15625 L -144.96875 -41.125 L -145.609375 -44.421875 L -145.75 -48.390625 L -146.71875 -52.65625 L -149.0625 -68.5 L -148.734375 -72.125 L -149.28125 -76.234375 L -148.25 -80.375 L -144.765625 -82.640625 L -133.078125 -84.609375 L -129.125 -84.9375 L -125.234375 -85.671875 L -121.4375 -84.1875 L -118.53125 -80.375 L -117.828125 -76.6875 L -114.46875 -48.625 L -113.171875 -45 L -112.875 -41.265625 L -110.734375 -37.140625 L -106.75 -35.875 L -100.6875 -36.703125 L -94.828125 -39.109375 L -93.609375 -43.4375 L -95.53125 -54.765625 L -96.046875 -63.0625 L -97.015625 -67.109375 L -98.5625 -78.6875 L -96.609375 -83.53125 L -91.40625 -86.234375 L -73.6875 -88.015625 L -69.578125 -87.171875 L -67.484375 -83.46875 L -67.09375 -78.9375 L -66.15625 -75.0625 L -65.28125 -67.015625 L -63.875 -59.609375 L -63.625 -53.265625 L -62.640625 -47.421875 L -60 -44.171875 L -55.65625 -42.96875 L -43.3125 -44.625 L -40 -46.671875 L -38.59375 -51.0625 L -39.5625 -55.3125 L -39.46875 -59.109375 L -40.25 -63.40625 L -40.375 -67.375 L -42.046875 -73.71875 L -43.1875 -83.75 L -43.09375 -87.546875 L -44.109375 -92 L -42.890625 -96.359375 L -39.265625 -99.03125 L -19.484375 -101.703125 L -15.0625 -100.109375 L -12.75 -96.21875 Z M -8.59375 -68.265625 "/></g></g></g><g fill="#00a1df" fill-opacity="1"><g transform="translate(211.65801, 1089.407215)"><g><path d="M 0.5625 -116.6875 L -2.125 -113.8125 L -8.015625 -108.859375 L -39.46875 -79.265625 L -41.75 -75.96875 L -44.796875 -73.5 L -58.703125 -59.9375 L -62.15625 -57.484375 L -63.234375 -54.9375 L -59.90625 -53.453125 L -55.96875 -52.90625 L -6 -51.046875 L 0.0625 -48.84375 L 1.890625 -44.828125 L 1.96875 -40.671875 L 1.109375 -33 L 1.359375 -28.640625 L 0.6875 -20.546875 L -0.84375 -16.4375 L -4.65625 -14.78125 L -21.25 -14.953125 L -25 -15.46875 L -57.40625 -16.171875 L -60.75 -16.875 L -68.859375 -16.75 L -72.21875 -17.046875 L -132.078125 -19.0625 L -135.78125 -20.96875 L -137.59375 -25.59375 L -136.015625 -31.484375 L -133.484375 -35.9375 L -131.015625 -38.8125 L -90.390625 -76.421875 L -85.859375 -81.796875 L -71.359375 -95.359375 L -69.875 -98.265625 L -73.1875 -99.578125 L -108.546875 -101.15625 L -112.90625 -100.90625 L -121.1875 -101.78125 L -124.359375 -101.296875 L -128.515625 -101.640625 L -132.59375 -103.9375 L -134.640625 -107.765625 L -134 -132.28125 L -131.703125 -136.15625 L -127.6875 -138 L -100.203125 -137.671875 L -95.484375 -136.921875 L -75.921875 -136.265625 L -72.53125 -136.75 L -0.4375 -133.921875 L 3.453125 -131.8125 L 4.671875 -127.421875 L 3.890625 -121.890625 Z M 0.5625 -116.6875 "/></g></g></g><g fill="#00a1df" fill-opacity="1"><g transform="translate(216.274, 957.702733)"><g><path d="M 10.59375 -50.5 L 9.203125 -44.515625 L 6.109375 -39.3125 L 1.359375 -37.65625 L -2.25 -38.765625 L -13.453125 -41.234375 L -17.609375 -41.671875 L -33.25 -45.03125 L -37.046875 -46.203125 L -66.046875 -51.453125 L -71.390625 -52.9375 L -75.296875 -53.515625 L -79.546875 -54.578125 L -85.046875 -55.28125 L -91.171875 -56.921875 L -95.46875 -55.5625 L -98.140625 -52.28125 L -102.265625 -33.953125 L -102.640625 -29.984375 L -105.296875 -26.90625 L -109.140625 -25.859375 L -115.203125 -26.6875 L -124.828125 -29.015625 L -128.75 -29.625 L -132.734375 -32.84375 L -133.90625 -36.921875 L -130.390625 -50.328125 L -129.765625 -56.453125 L -126.875 -67.765625 L -126.953125 -71.40625 L -125.71875 -75.59375 L -125.46875 -79.78125 L -124.53125 -83.421875 L -122.953125 -87.140625 L -120.578125 -102.984375 L -119.453125 -106.609375 L -119.203125 -110.78125 L -118.078125 -114.40625 L -115.65625 -126.40625 L -112.390625 -129.578125 L -108.078125 -130.9375 L -89.71875 -127.015625 L -85.921875 -123.828125 L -84.453125 -120.09375 L -85.359375 -116.65625 L -85.59375 -112.46875 L -88 -105.5 L -89.15625 -97.859375 L -87.5625 -93.71875 L -82.0625 -91 L -65.328125 -87 L -61.125 -86.765625 L -30.015625 -80.0625 L -25.640625 -79.78125 L -22.234375 -78.703125 L -14.4375 -77.34375 L -10.4375 -76.109375 L -2.96875 -75.203125 L 7 -72.59375 L 12.03125 -69.578125 L 12.828125 -63.5625 Z M 10.59375 -50.5 "/></g></g></g><g fill="#00a1df" fill-opacity="1"><g transform="translate(232.181519, 865.322725)"><g><path d="M 41.5625 -108.984375 L 39.734375 -105.234375 L 36.265625 -101.6875 L 32.109375 -99.03125 L 28.359375 -99.171875 L 24.234375 -98.828125 L 19.9375 -96.453125 L 16.375 -93.140625 L 15.375 -88.859375 L 13.765625 -85.65625 L 7.09375 -67.46875 L 5.28125 -64.359375 L 3.09375 -56.296875 L 1.21875 -53.015625 L 1.78125 -48.359375 L 3.96875 -43.515625 L 8.8125 -37.875 L 10.828125 -33.109375 L 10.5 -28.375 L 6.953125 -17.859375 L 5.1875 -14.3125 L 2.84375 -6.953125 L 0.34375 -3.671875 L -4.640625 -4.484375 L -7.921875 -7.015625 L -13.9375 -13.484375 L -16.890625 -15.6875 L -18.71875 -18.6875 L -25.078125 -24.265625 L -29.734375 -29.8125 L -32.9375 -32.515625 L -35.015625 -35.390625 L -38.671875 -38.046875 L -71.125 -71.859375 L -74.03125 -74.234375 L -76.765625 -77.59375 L -80.125 -79.90625 L -82.140625 -82.984375 L -96.359375 -96.8125 L -98.3125 -99.453125 L -101.515625 -102.15625 L -104.03125 -105 L -105.90625 -109.53125 L -105.734375 -116.21875 L -101.578125 -121.625 L -97.046875 -123.5 L -89.265625 -124.5625 L -85.5 -124.421875 L -81.40625 -125.1875 L -77.28125 -124.90625 L -46.96875 -127.40625 L -42.609375 -127.25 L -34.296875 -128.546875 L -30.90625 -128.546875 L -27.515625 -129.140625 L -23.015625 -128.71875 L -18.828125 -129.234375 L -15.34375 -130.03125 L 4.140625 -130.71875 L 12.1875 -131.90625 L 20.015625 -131.90625 L 31.53125 -133.28125 L 39.40625 -133.453125 L 44.15625 -133.15625 L 48.375 -130.90625 L 47.34375 -125.390625 L 45.375 -119.578125 L 43.671875 -116.21875 Z M -20.3125 -84.390625 L -17.734375 -91.859375 L -18.15625 -95.1875 L -21.203125 -97.1875 L -44.828125 -96.15625 L -47.296875 -94.140625 L -46.40625 -91.46875 L -29.703125 -75.25 L -26.109375 -74.09375 L -23.703125 -76.578125 L -22.46875 -80.96875 Z M -20.3125 -84.390625 "/></g></g></g><g fill="#00a1df" fill-opacity="1"><g transform="translate(277.041305, 746.86994)"><g><path d="M 1.296875 -16.578125 L -63.125 -53.234375 L -66.59375 -54.78125 L -70.46875 -56.765625 L -76.515625 -60.90625 L -80.140625 -62.546875 L -83.203125 -64.734375 L -107.21875 -78.484375 L -110.109375 -82.203125 L -109.421875 -86.578125 L -108.0625 -90.15625 L -103.453125 -96.609375 L -102.171875 -100.4375 L -98.34375 -107.125 L -94.3125 -109.359375 L -89.5625 -108.9375 L -86.40625 -106.875 L -76.328125 -101.796875 L -69.65625 -97.53125 L -65.359375 -95.515625 L -7.296875 -62.046875 L -3.09375 -61.46875 L 0.265625 -64.09375 L 1.96875 -67.90625 L 6.15625 -74.390625 L 7.421875 -77.78125 L 10.046875 -80.8125 L 13.921875 -87.9375 L 16.5 -91.234375 L 17.671875 -94.90625 L 19.40625 -98.703125 L 23.234375 -100.59375 L 29.25 -99.203125 L 43.25 -91.421875 L 47.46875 -86.484375 L 47.328125 -82.25 L 27.703125 -48.375 L 25.890625 -44.421875 L 23.5 -41.4375 L 20.109375 -34.71875 L 15.9375 -28.234375 L 12.328125 -20.75 L 10.03125 -17.5 L 6.4375 -15.21875 Z M 1.296875 -16.578125 "/></g></g></g><g fill="#00a1df" fill-opacity="1"><g transform="translate(323.871585, 666.417666)"><g/></g></g><g fill="#00a1df" fill-opacity="1"><g transform="translate(343.043123, 632.419945)"><g><path d="M 47.890625 -49.40625 L 45.203125 -46.796875 L 42.203125 -44.71875 L 38.5 -42.765625 L 35.5 -40.6875 L 26.703125 -36.703125 L 17.578125 -33.5625 L 5.890625 -32.265625 L -6 -32.234375 L -24.375 -37.671875 L -34.546875 -43.296875 L -45.9375 -52.21875 L -57.078125 -65.21875 L -61.671875 -72.1875 L -66.453125 -83.328125 L -68.109375 -89.96875 L -69.40625 -98.46875 L -69.296875 -109.9375 L -68.59375 -117.09375 L -63.734375 -132.53125 L -53.46875 -149.15625 L -44.984375 -158.015625 L -41.859375 -160.515625 L -39.171875 -163.140625 L -21.625 -172.765625 L -6.25 -176.859375 L 1.703125 -177.015625 L 5.921875 -176.0625 L 10.28125 -175.828125 L 13.796875 -174.96875 L 17.609375 -174.421875 L 21.46875 -172.484375 L 25.015625 -171.0625 L 29.015625 -168.984375 L 30.96875 -165.28125 L 29.84375 -161.734375 L 26.25 -157 L 22.0625 -153.328125 L 19.515625 -150.28125 L 16.546875 -147.375 L 14.421875 -144.515625 L 9.75 -142.640625 L 4.453125 -142.4375 L 0.78125 -142.859375 L -7.3125 -142.546875 L -10.796875 -141.984375 L -14.21875 -140.3125 L -19.6875 -137.046875 L -25.765625 -131.0625 L -33.453125 -120.125 L -34.890625 -114.1875 L -35.359375 -108.171875 L -34.53125 -100.9375 L -33.125 -96.921875 L -29.90625 -89.921875 L -25.046875 -83.53125 L -16.203125 -75.34375 L -12.609375 -72.828125 L -9.3125 -71.125 L -6.359375 -70.265625 L -2.515625 -68.59375 L 5.53125 -67.078125 L 13.203125 -67.796875 L 20.5 -70.453125 L 27.21875 -73.9375 L 31.546875 -77.734375 L 38.21875 -85.828125 L 40.171875 -93.453125 L 41.3125 -96.4375 L 41.453125 -100.640625 L 40.75 -107.46875 L 39.328125 -111.46875 L 39.171875 -115.921875 L 40.5 -120.890625 L 43.34375 -123.65625 L 45.875 -126.6875 L 49 -129.1875 L 55.96875 -137.84375 L 60.515625 -139 L 63.9375 -137.46875 L 71.484375 -123.484375 L 73.875 -115.59375 L 75.125 -108.25 L 75.453125 -100.40625 L 73.9375 -88.609375 L 72.828125 -85.0625 L 71.015625 -81.078125 L 70.0625 -77.125 L 63.859375 -66.953125 L 55.1875 -56.125 Z M 47.890625 -49.40625 "/></g></g></g><g fill="#00a1df" fill-opacity="1"><g transform="translate(434.142872, 534.620639)"><g><path d="M 7.515625 -14.828125 L -38.09375 -73.28125 L -40.703125 -76 L -43.53125 -79.328125 L -47.546875 -85.46875 L -50.28125 -88.34375 L -52.265625 -91.546875 L -69.25 -113.421875 L -70.5 -117.953125 L -68.203125 -121.734375 L -65.578125 -124.515625 L -58.859375 -128.71875 L -56.21875 -131.78125 L -50.125 -136.515625 L -45.5625 -137.0625 L -41.328125 -134.828125 L -39.171875 -131.734375 L -31.796875 -123.203125 L -27.265625 -116.703125 L -24.046875 -113.21875 L 16.875 -60.140625 L 20.5625 -58 L 24.65625 -59.15625 L 27.6875 -62.046875 L 34.015625 -66.4375 L 36.46875 -69.09375 L 40.0625 -70.890625 L 46.359375 -76 L 50 -78.078125 L 52.484375 -81.015625 L 55.515625 -83.875 L 59.796875 -84.171875 L 64.828125 -80.59375 L 74.8125 -68.0625 L 76.828125 -61.875 L 75.09375 -58.015625 L 44.046875 -34.171875 L 40.84375 -31.203125 L 37.515625 -29.359375 L 31.828125 -24.4375 L 25.484375 -20.03125 L 19.296875 -14.484375 L 15.9375 -12.359375 L 11.75 -11.625 Z M 7.515625 -14.828125 "/></g></g></g><g fill="#00a1df" fill-opacity="1"><g transform="translate(506.327424, 478.110852)"><g><path d="M 57.296875 -33.203125 L 53.390625 -32.03125 L 45.0625 -27.078125 L 40.375 -23.359375 L 33.1875 -20 L 30 -17.640625 L 24.84375 -14.34375 L 19.5 -12.0625 L 16.46875 -9.8125 L 13.25 -7.890625 L 8.953125 -7.40625 L 4.5 -10.96875 L -4.28125 -26.890625 L -4.234375 -31.0625 L 4.9375 -41.125 L 3.78125 -47.359375 L -27.78125 -99.203125 L -32.046875 -102.859375 L -36.484375 -102.96875 L -39.890625 -100.953125 L -44.75 -100.59375 L -48.625 -102.890625 L -50.21875 -106.3125 L -58.203125 -118.578125 L -58.921875 -123.671875 L -56.546875 -127.375 L -52.640625 -129.703125 L -49.109375 -131.125 L -35.171875 -139.421875 L -32.1875 -142.125 L -28.9375 -143.609375 L -8.390625 -155.84375 L -4.21875 -155.8125 L -0.25 -153.78125 L 9.578125 -136.875 L 9.515625 -133.140625 L 6.75 -129.65625 L 3.65625 -127.125 L 0.84375 -123.359375 L 1.984375 -118.75 L 11.515625 -101.1875 L 19.484375 -89.375 L 21.359375 -85.4375 L 32.65625 -66.84375 L 34.0625 -63.328125 L 38.4375 -60.640625 L 43.328125 -61.703125 L 46.890625 -63.828125 L 51.734375 -64.203125 L 55.703125 -62.15625 L 65.71875 -45.359375 L 65.9375 -41.109375 L 63.890625 -37.609375 Z M 57.296875 -33.203125 "/></g></g></g><g fill="#00a1df" fill-opacity="1"><g transform="translate(567.780371, 437.435572)"><g><path d="M 106.8125 -46.984375 L 103.09375 -48.25 L 96.171875 -51.625 L 56.328125 -68.3125 L 52.40625 -69.0625 L 48.90625 -70.84375 L 30.84375 -78.015625 L 27.203125 -80.171875 L 24.4375 -80.125 L 24.421875 -76.46875 L 25.546875 -72.671875 L 44.1875 -26.25 L 44.640625 -19.828125 L 41.71875 -16.515625 L 37.953125 -14.765625 L 30.59375 -12.421875 L 26.703125 -10.421875 L 19.046875 -7.734375 L 14.6875 -7.453125 L 11.609375 -10.265625 L 5 -25.515625 L 3.953125 -29.125 L -8.59375 -59.03125 L -9.3125 -62.359375 L -12.71875 -69.734375 L -13.8125 -72.90625 L -36.34375 -128.40625 L -36.109375 -132.5625 L -32.625 -136.09375 L -26.609375 -137.046875 L -21.515625 -136.5625 L -17.890625 -135.46875 L 33.015625 -113.671875 L 39.765625 -111.734375 L 58.046875 -104 L 61.3125 -103.828125 L 61.15625 -107.390625 L 48.21875 -140.328125 L 46.21875 -144.21875 L 43.640625 -152.140625 L 41.90625 -154.84375 L 40.53125 -158.75 L 40.984375 -163.4375 L 43.640625 -166.84375 L 66.28125 -176.25 L 70.75 -175.71875 L 74.078125 -172.796875 L 84.96875 -147.578125 L 86.203125 -142.953125 L 93.5625 -124.8125 L 95.375 -121.921875 L 122.140625 -54.921875 L 121.796875 -50.5 L 118.296875 -47.609375 L 112.9375 -46.0625 Z M 106.8125 -46.984375 "/></g></g></g><g fill="#00a1df" fill-opacity="1"><g transform="translate(690.981017, 388.510386)"><g><path d="M 64.59375 -14.578125 L 60.515625 -14.640625 L 51.09375 -12.390625 L 45.53125 -10.234375 L 37.640625 -9.1875 L 33.890625 -7.859375 L 27.984375 -6.28125 L 22.21875 -5.6875 L 18.65625 -4.453125 L 15 -3.578125 L 10.75 -4.390625 L 7.5625 -9.125 L 3.9375 -26.953125 L 5.234375 -30.921875 L 17 -37.78125 L 17.75 -44.0625 L 3.09375 -102.953125 L 0.125 -107.75 L -4.078125 -109.171875 L -7.921875 -108.25 L -12.671875 -109.375 L -15.6875 -112.703125 L -16.1875 -116.453125 L -20.15625 -130.53125 L -19.328125 -135.625 L -15.9375 -138.46875 L -11.515625 -139.515625 L -7.71875 -139.8125 L 8.046875 -143.5625 L 11.703125 -145.25 L 15.25 -145.703125 L 38.515625 -151.25 L 42.484375 -149.96875 L 45.671875 -146.84375 L 50.015625 -127.765625 L 48.84375 -124.234375 L 45.15625 -121.734375 L 41.453125 -120.234375 L 37.640625 -117.5 L 37.34375 -112.75 L 41.1875 -93.140625 L 45.265625 -79.46875 L 45.90625 -75.15625 L 51.125 -54.046875 L 51.40625 -50.25 L 54.78125 -46.390625 L 59.765625 -45.953125 L 63.8125 -46.921875 L 68.53125 -45.8125 L 71.71875 -42.703125 L 76.265625 -23.671875 L 75.203125 -19.546875 L 72.203125 -16.8125 Z M 64.59375 -14.578125 "/></g></g></g><g fill="#00a1df" fill-opacity="1"><g transform="translate(761.690898, 367.966514)"><g><path d="M 68.6875 -4 L 64.9375 -3.890625 L 61.328125 -4.390625 L 57.28125 -5.46875 L 53.671875 -5.953125 L 44.484375 -8.984375 L 35.65625 -12.828125 L 26.15625 -19.78125 L 17.375 -27.796875 L 7.515625 -44.25 L 3.828125 -55.25 L 1.46875 -69.53125 L 2.0625 -86.640625 L 3.390625 -94.890625 L 7.421875 -106.328125 L 10.6875 -112.328125 L 15.46875 -119.46875 L 23.3125 -127.84375 L 28.671875 -132.625 L 42.6875 -140.71875 L 61.5 -146.03125 L 73.734375 -146.828125 L 77.71875 -146.546875 L 81.46875 -146.65625 L 100.90625 -141.890625 L 114.984375 -134.515625 L 120.96875 -129.25 L 123.4375 -125.6875 L 126.484375 -122.5625 L 128.5 -119.5625 L 130.9375 -116.578125 L 132.453125 -112.53125 L 134.125 -109.09375 L 135.65625 -104.859375 L 134.59375 -100.796875 L 131.375 -98.953125 L 125.515625 -97.875 L 119.953125 -98.015625 L 116.015625 -97.5 L 111.875 -97.359375 L 108.34375 -96.6875 L 103.640625 -98.484375 L 99.59375 -101.921875 L 97.203125 -104.703125 L 91.015625 -109.953125 L 88.0625 -111.890625 L 84.421875 -113 L 78.171875 -114.265625 L 69.640625 -113.96875 L 56.609375 -111.125 L 51.515625 -107.71875 L 47.09375 -103.609375 L 42.8125 -97.703125 L 41.15625 -93.796875 L 38.78125 -86.453125 L 38.046875 -78.46875 L 39.015625 -66.453125 L 39.953125 -62.171875 L 41.21875 -58.6875 L 42.84375 -56.046875 L 44.53125 -52.234375 L 49.4375 -45.671875 L 55.578125 -41.015625 L 62.75 -38.03125 L 70.0625 -36.0625 L 75.8125 -35.9375 L 86.203125 -37.375 L 92.796875 -41.671875 L 95.65625 -43.09375 L 98.578125 -46.109375 L 102.6875 -51.59375 L 104.375 -55.515625 L 107.25 -58.90625 L 111.59375 -61.65625 L 115.5625 -61.765625 L 119.484375 -62.296875 L 123.46875 -62.015625 L 134.453125 -63.703125 L 138.59375 -61.453125 L 140.0625 -58.015625 L 136.171875 -42.625 L 132.59375 -35.1875 L 128.53125 -28.921875 L 123.484375 -22.9375 L 114.390625 -15.28125 L 111.15625 -13.40625 L 107.140625 -11.703125 L 103.765625 -9.4375 L 92.3125 -6.125 L 78.59375 -4.03125 Z M 68.6875 -4 "/></g></g></g><g fill="#00a1df" fill-opacity="1"><g transform="translate(897.064979, 359.094887)"><g/></g></g><g fill="#1e456a" fill-opacity="1"><g transform="translate(936.263452, 357.258653)"><g><path d="M 114.890625 20.1875 L 110.859375 19.09375 L 106.71875 16.359375 L 103.3125 12.78125 L 102.75 9.0625 L 101.625 5.0625 L 98.46875 1.296875 L 94.546875 -1.578125 L 90.171875 -1.71875 L 86.71875 -2.71875 L 67.59375 -5.8125 L 64.1875 -7 L 55.875 -7.625 L 52.28125 -8.859375 L 47.796875 -7.421875 L 43.484375 -4.34375 L 38.859375 1.484375 L 34.5625 4.34375 L 29.84375 4.9375 L 18.859375 3.453125 L 15.03125 2.375 L 7.375 1.484375 L 3.6875 -0.359375 L 3.53125 -5.40625 L 5.375 -9.109375 L 10.609375 -16.21875 L 12.203125 -19.546875 L 14.8125 -21.9375 L 19.078125 -29.21875 L 23.640625 -34.828125 L 25.703125 -38.515625 L 28.140625 -41.09375 L 30.046875 -45.1875 L 57.09375 -83.453125 L 58.875 -86.75 L 61.65625 -90.078125 L 63.296875 -93.8125 L 65.9375 -96.359375 L 76.796875 -112.953125 L 79.03125 -115.375 L 81.078125 -119.03125 L 83.40625 -122.03125 L 87.484375 -124.75 L 94.078125 -125.828125 L 100.1875 -122.765625 L 102.890625 -118.6875 L 105.40625 -111.25 L 105.96875 -107.53125 L 107.5 -103.640625 L 108.015625 -99.546875 L 116.203125 -70.25 L 116.859375 -65.9375 L 119.734375 -58.03125 L 120.34375 -54.703125 L 121.59375 -51.46875 L 122.03125 -47 L 123.34375 -42.953125 L 124.78125 -39.703125 L 129.140625 -20.703125 L 131.8125 -13 L 133.3125 -5.328125 L 136.828125 5.703125 L 138.515625 13.421875 L 139.09375 18.125 L 137.703125 22.71875 L 132.09375 22.75 L 126.015625 21.90625 L 122.375 20.859375 Z M 79 -35.953125 L 86.828125 -34.796875 L 90.03125 -35.84375 L 91.40625 -39.234375 L 85.921875 -62.234375 L 83.484375 -64.265625 L 81.03125 -62.890625 L 68.25 -43.40625 L 67.8125 -39.671875 L 70.703125 -37.765625 L 75.25 -37.40625 Z M 79 -35.953125 "/></g></g></g><g fill="#1e456a" fill-opacity="1"><g transform="translate(1059.983587, 376.555535)"><g><path d="M 110.40625 37.765625 L 108.53125 34.3125 L 105.734375 27.140625 L 87.703125 -12.109375 L 85.328125 -15.328125 L 83.953125 -19.015625 L 75.515625 -36.515625 L 74.3125 -40.546875 L 72.234375 -42.390625 L 69.765625 -39.71875 L 68.015625 -36.15625 L 50.28125 10.609375 L 46.265625 15.640625 L 41.875 16.09375 L 37.921875 14.84375 L 30.921875 11.578125 L 26.703125 10.421875 L 19.25 7.21875 L 15.84375 4.453125 L 15.5 0.3125 L 20.953125 -15.375 L 22.640625 -18.75 L 33.640625 -49.234375 L 35.390625 -52.1875 L 37.859375 -59.921875 L 39.21875 -63 L 60.234375 -119.078125 L 63.203125 -121.984375 L 68.15625 -122.234375 L 73.25 -118.859375 L 76.65625 -115.03125 L 78.59375 -111.78125 L 101.28125 -61.265625 L 104.921875 -55.265625 L 113.140625 -37.203125 L 115.4375 -34.875 L 117.71875 -37.59375 L 130.515625 -70.59375 L 131.65625 -74.796875 L 135.140625 -82.375 L 135.6875 -85.546875 L 137.328125 -89.359375 L 140.828125 -92.5 L 145.09375 -93.21875 L 168.125 -84.78125 L 171.078125 -81.359375 L 171.53125 -76.96875 L 162.453125 -51.046875 L 160.234375 -46.796875 L 153.359375 -28.46875 L 152.75 -25.109375 L 127.0625 42.3125 L 123.828125 45.328125 L 119.265625 45.09375 L 114.296875 42.59375 Z M 110.40625 37.765625 "/></g></g></g><g fill="#1e456a" fill-opacity="1"><g transform="translate(1182.883348, 420.988633)"><g><path d="M 51.71875 32.140625 L 45.203125 27.25 L 41.515625 25.703125 L 21.109375 12.84375 L 17.53125 11.109375 L 15.15625 7.390625 L 16.671875 1.125 L 21.921875 -7.5 L 23.53125 -10.90625 L 81.125 -105.234375 L 84.796875 -107.84375 L 89.4375 -107.109375 L 92.703125 -104.875 L 96.0625 -103.53125 L 134.359375 -79.78125 L 143.40625 -72.203125 L 146.4375 -69.203125 L 148.484375 -66.109375 L 151.453125 -63.375 L 153.546875 -59.5625 L 158.65625 -48.578125 L 161.53125 -33.171875 L 161.859375 -20.71875 L 161.25 -16.6875 L 159.53125 -8.953125 L 153.78125 5.828125 L 150.96875 10.84375 L 147.171875 15.9375 L 145.03125 19.46875 L 142.453125 22.546875 L 139.71875 24.796875 L 136.875 27.9375 L 134.0625 30.640625 L 127.375 35.578125 L 123.703125 37.046875 L 119.96875 39.390625 L 105.203125 45.015625 L 89.265625 45.734375 L 79.265625 44.265625 L 71.640625 41.234375 L 65.8125 39.796875 L 62.4375 37.734375 L 56.765625 35.21875 Z M 68.046875 4.140625 L 73.21875 7.046875 L 81 10.625 L 86.8125 12.078125 L 94.828125 11.859375 L 105.390625 8.578125 L 112.0625 4.046875 L 120.9375 -6.734375 L 127.28125 -23.25 L 127.609375 -27.1875 L 127.65625 -31.09375 L 126.984375 -35.6875 L 125.875 -39.578125 L 124.46875 -42.984375 L 122.359375 -46.34375 L 116.90625 -52.234375 L 112.3125 -55.703125 L 105.125 -59.84375 L 99 -61.953125 L 94.9375 -59.109375 L 92.859375 -56.4375 L 79.015625 -32.921875 L 73.21875 -24.890625 L 68.84375 -16.21875 L 64.484375 -9.375 L 62.890625 -6.40625 L 62.296875 -2.375 L 65.03125 1.84375 Z M 68.046875 4.140625 "/></g></g></g><g fill="#1e456a" fill-opacity="1"><g transform="translate(1291.996018, 489.533048)"><g/></g></g><g fill="#1e456a" fill-opacity="1"><g transform="translate(1324.84782, 512.017863)"><g><path d="M 36.484375 38.71875 L 31.71875 32.03125 L 28.1875 24.625 L 26.21875 21 L 24.8125 17.09375 L 24.921875 13.046875 L 23.09375 5.078125 L 23.34375 1.15625 L 23.1875 -2.609375 L 25.6875 -10.4375 L 27.34375 -13.796875 L 29.578125 -17.171875 L 31.9375 -20.390625 L 35.984375 -22.21875 L 39.609375 -20.84375 L 50.96875 -10.65625 L 53.234375 -7.59375 L 56.046875 -5.390625 L 57.734375 -1.46875 L 57.34375 8.171875 L 58.203125 12.078125 L 59.3125 15.703125 L 65.796875 23.515625 L 68.734375 25.59375 L 73.359375 29.640625 L 80.21875 32.265625 L 84.125 31.984375 L 88.734375 29.578125 L 91.375 25.25 L 91.21875 21.75 L 88.546875 14.34375 L 69.015625 -10.046875 L 65.65625 -16.734375 L 61.234375 -31.40625 L 62.453125 -43 L 65.09375 -50.15625 L 69.6875 -56.734375 L 73.859375 -61.21875 L 81.109375 -67.671875 L 91.28125 -72.890625 L 102.734375 -74.609375 L 114.078125 -72.546875 L 121.625 -70.625 L 128.625 -67.03125 L 131.578125 -64.9375 L 134.515625 -62.28125 L 138.453125 -60.046875 L 148.96875 -49.0625 L 153.328125 -42.515625 L 158.53125 -32.03125 L 161.390625 -16.390625 L 160.296875 -9.125 L 156.984375 2.0625 L 154.640625 5.015625 L 152.53125 8.25 L 149.046875 9.5 L 144.4375 8.828125 L 142.1875 6.046875 L 139.390625 3.25 L 135.875 -0.78125 L 128.71875 -6.765625 L 127.421875 -11.65625 L 128.109375 -16.546875 L 127.6875 -20.890625 L 126.828125 -25.078125 L 125.015625 -28.28125 L 121.078125 -33.3125 L 116.4375 -37.625 L 113.34375 -39.578125 L 109.859375 -40.53125 L 106.21875 -41.078125 L 102.71875 -40.921875 L 98.265625 -37.828125 L 94.65625 -33.046875 L 94.796875 -29 L 97.5 -21.328125 L 103.390625 -12.40625 L 107.46875 -8.359375 L 109.859375 -4.890625 L 112.515625 -1.96875 L 114.921875 1.25 L 122.5 15.484375 L 123.5 19.53125 L 124.625 22.875 L 124.9375 27.640625 L 124.40625 35.453125 L 123.71875 39.234375 L 117.75 49.46875 L 113.578125 54.234375 L 105.765625 60.421875 L 102.546875 61.96875 L 99.203125 63.65625 L 94.59375 65.203125 L 91.234375 65.78125 L 83 65.96875 L 67.75 62.21875 L 63.828125 60.84375 L 61.03125 58.625 L 57.109375 56.953125 L 53.875 54.59375 L 50.390625 52.515625 L 47.296875 50.015625 Z M 36.484375 38.71875 "/></g></g></g><g fill="#1e456a" fill-opacity="1"><g transform="translate(1403.272181, 588.78443)"><g><path d="M 40.4375 55.65625 L 38.421875 52.25 L 35.734375 49.296875 L 33.203125 45.515625 L 31.59375 42.03125 L 26.3125 35.875 L 24.34375 32.890625 L 21.453125 29.640625 L 13.140625 18.078125 L 11.671875 11.78125 L 15.015625 7.34375 L 18.296875 4.4375 L 29.59375 -3.21875 L 32.4375 -6.03125 L 35.671875 -7.953125 L 61.53125 -26.84375 L 64.0625 -29.4375 L 77.1875 -38.9375 L 80.4375 -40.84375 L 83.4375 -43.78125 L 99.234375 -55 L 102.375 -58.0625 L 109.25 -62.40625 L 115.0625 -67.1875 L 119.6875 -67.921875 L 123.421875 -65.53125 L 125.609375 -62.234375 L 128.28125 -59.265625 L 130.078125 -56.203125 L 132.953125 -53.640625 L 134.84375 -50.109375 L 144.78125 -37.3125 L 146.828125 -33.90625 L 148.96875 -31.3125 L 151 -27.90625 L 153.90625 -24.625 L 163.609375 -11.890625 L 165.078125 -8.5625 L 167.546875 -5.21875 L 168.640625 -1.109375 L 166.6875 2.5625 L 157.390625 9.9375 L 154.078125 12.125 L 151.03125 14.640625 L 147 15.171875 L 142.59375 13.25 L 140.21875 10.34375 L 123.71875 -12.625 L 120.84375 -15.171875 L 118.765625 -18.296875 L 114.90625 -20.859375 L 110.828125 -20.0625 L 105.90625 -16.421875 L 101.921875 -11.5 L 102.96875 -7.109375 L 110.109375 1.875 L 114.546875 8.90625 L 117.359375 12 L 124.296875 21.375 L 124.9375 26.578125 L 121.65625 31.453125 L 106.984375 41.5625 L 103 42.796875 L 99.390625 40.5625 L 96.84375 36.796875 L 94.140625 33.84375 L 89.5 27.21875 L 84.71875 21.40625 L 81.421875 15.96875 L 77.75 11.328125 L 73.875 9.765625 L 69.46875 10.796875 L 59.46875 18.203125 L 57.53125 21.59375 L 58.4375 26.109375 L 61.328125 29.359375 L 63.09375 32.75 L 65.84375 36.125 L 67.859375 39.546875 L 72.375 44.296875 L 78.234375 52.53125 L 79.96875 55.90625 L 83 59.3125 L 84.0625 63.71875 L 82.15625 67.8125 L 66.109375 79.703125 L 61.484375 80.421875 L 57.578125 78.140625 Z M 40.4375 55.65625 "/></g></g></g><g fill="#1e456a" fill-opacity="1"><g transform="translate(1462.579323, 665.043078)"><g><path d="M 14.015625 9.4375 L 39.984375 -4 L 43.328125 -6.15625 L 57.625 -13.375 L 61.140625 -14.734375 L 64.296875 -16.828125 L 67.8125 -18.640625 L 71.59375 -20.796875 L 78.875 -23.921875 L 82.203125 -26.09375 L 122.34375 -47.0625 L 128.328125 -47.515625 L 131.71875 -45.265625 L 137.96875 -35.359375 L 139.78125 -31.40625 L 140.90625 -27.53125 L 142.71875 -24.015625 L 145.25 -21.3125 L 147.0625 -17.796875 L 148.15625 -13.921875 L 153.609375 -3.390625 L 156.609375 1.515625 L 159.34375 7.21875 L 162.234375 18.40625 L 163.421875 26.28125 L 163.25 34.140625 L 157.90625 49.59375 L 156.09375 52.984375 L 153.828125 55.921875 L 145.46875 64.265625 L 142.21875 66.625 L 131.34375 72.703125 L 120 75.6875 L 104.140625 75.1875 L 100.765625 73.828125 L 96.859375 72.734375 L 92.171875 73.15625 L 88.046875 75.515625 L 86.53125 78.96875 L 80.296875 89.3125 L 77.953125 92.53125 L 72.09375 103.125 L 69.484375 106.28125 L 68.109375 109.640625 L 65.265625 113.578125 L 60.859375 114.53125 L 57.546875 112 L 54.359375 106.296875 L 52.96875 102.78125 L 45.640625 89 L 44.125 82.21875 L 45.28125 76.734375 L 47.265625 73.25 L 50.046875 70.046875 L 51.6875 66.734375 L 56.28125 60.125 L 59.625 53.71875 L 62.078125 50.6875 L 64.5 46.75 L 65.671875 41.6875 L 61.78125 30.796875 L 58.125 28.453125 L 53.8125 28.6875 L 42.390625 34.15625 L 38.96875 36.578125 L 35.640625 37.875 L 29.671875 40.96875 L 23.75 42.015625 L 19.078125 37.3125 L 16.359375 32.046875 L 14.546875 29.40625 L 12.171875 23.515625 L 9.828125 20.28125 L 9.484375 14.015625 Z M 89.890625 16.25 L 92.234375 19.921875 L 96.265625 28.53125 L 98.140625 31.78125 L 102.015625 36.234375 L 105.046875 38.671875 L 107.625 39.78125 L 111.265625 40.34375 L 115.609375 40.109375 L 121.125 37.921875 L 125.328125 34.84375 L 127.609375 32.328125 L 130.765625 25.125 L 129.921875 21.328125 L 127.90625 16.609375 L 126.40625 11.140625 L 122.078125 4.46875 L 120.4375 0.875 L 117.109375 -2.078125 L 112.984375 -1.9375 L 105.40625 1.53125 L 102.609375 3.421875 L 92.078125 8.875 L 90 11.734375 Z M 89.890625 16.25 "/></g></g></g><g fill="#1e456a" fill-opacity="1"><g transform="translate(1518.792753, 770.67736)"><g><path d="M 18.703125 65.390625 L 18.15625 61.65625 L 18.34375 57.015625 L 20.359375 52.25 L 22.65625 49.65625 L 38.203125 36.484375 L 41.671875 34.34375 L 44.4375 31.203125 L 49.828125 25.984375 L 53.375 23.40625 L 61.703125 15.609375 L 65.125 13.296875 L 97.859375 -15.65625 L 101.421875 -18.21875 L 103.59375 -21.1875 L 106.890625 -23.875 L 110.15625 -25.953125 L 112.40625 -28.734375 L 126.53125 -39.796875 L 130.78125 -39.484375 L 133.046875 -36.875 L 135.296875 -29.71875 L 137.046875 -26.125 L 140.0625 -15.25 L 139.53125 -10.3125 L 137.34375 -6.09375 L 124.671875 3.671875 L 116.21875 11.734375 L 94.65625 28.875 L 89.265625 34.09375 L 85.921875 35.96875 L 77.234375 43.890625 L 77.5 46.09375 L 81.484375 46.90625 L 93.234375 47.34375 L 97.21875 48.171875 L 100.859375 47.84375 L 104.59375 48.546875 L 108.90625 48.421875 L 155.90625 52.921875 L 160.109375 55.109375 L 163.890625 58.484375 L 165.375 65.890625 L 166.75 69.609375 L 168.25 73.078125 L 168.75 76.640625 L 169.625 80.734375 L 169.953125 84.359375 L 166.28125 86.546875 L 160.78125 86.8125 L 153.046875 85.328125 L 149.171875 85.5 L 141.359375 84.4375 L 137.375 83.609375 L 93.375 79.421875 L 86.265625 77.9375 L 81.703125 77.90625 L 62.234375 75.96875 L 58.1875 74.953125 L 54.625 74.828125 L 50.078125 74.1875 L 45.9375 74.234375 L 38.78125 72.578125 L 34.46875 72.671875 L 28.40625 71.890625 L 21.640625 69.453125 Z M 18.703125 65.390625 "/></g></g></g><g fill="#1e456a" fill-opacity="1"><g transform="translate(1553.643823, 882.79679)"><g><path d="M 10.015625 65.453125 L 10.359375 61.40625 L 8.78125 51.84375 L 7.03125 46.125 L 6.53125 38.203125 L 5.46875 34.359375 L 4.28125 28.34375 L 4.125 22.5625 L 3.125 18.921875 L 2.515625 15.21875 L 3.625 11.015625 L 8.5625 8.203125 L 26.59375 5.8125 L 30.46875 7.375 L 36.5 19.59375 L 42.71875 20.78125 L 102.5 10.3125 L 107.46875 7.671875 L 109.1875 3.59375 L 108.546875 -0.3125 L 109.984375 -4.953125 L 113.546875 -7.75 L 117.3125 -7.984375 L 131.625 -10.9375 L 136.640625 -9.765625 L 139.21875 -6.1875 L 139.96875 -1.703125 L 140 2.109375 L 142.640625 18.109375 L 144.078125 21.859375 L 144.28125 25.421875 L 148.171875 49.03125 L 146.609375 52.90625 L 143.28125 55.859375 L 123.9375 58.859375 L 120.5 57.4375 L 118.25 53.578125 L 117.03125 49.78125 L 114.5625 45.78125 L 109.84375 45.140625 L 90.03125 47.625 L 76.109375 50.734375 L 71.75 51.0625 L 50.328125 54.796875 L 46.53125 54.8125 L 42.4375 57.90625 L 41.65625 62.84375 L 42.34375 66.9375 L 40.890625 71.59375 L 37.578125 74.546875 L 18.265625 77.734375 L 14.234375 76.390625 L 11.703125 73.1875 Z M 10.015625 65.453125 "/></g></g></g><g fill="#1e456a" fill-opacity="1"><g transform="translate(1569.155805, 954.793686)"><g><path d="M -0.8125 68.8125 L -0.671875 65.0625 L 0.09375 61.484375 L 1.4375 57.515625 L 2.171875 53.953125 L 5.84375 45.015625 L 10.296875 36.46875 L 17.90625 27.484375 L 26.515625 19.28125 L 43.609375 10.59375 L 54.859375 7.6875 L 69.265625 6.34375 L 86.28125 8.140625 L 94.421875 10.03125 L 105.53125 14.84375 L 111.296875 18.53125 L 118.09375 23.8125 L 125.890625 32.21875 L 130.296875 37.90625 L 137.375 52.453125 L 141.359375 71.578125 L 141.28125 83.859375 L 140.734375 87.8125 L 140.578125 91.5625 L 134.453125 110.609375 L 126.109375 124.140625 L 120.4375 129.734375 L 116.703125 131.9375 L 113.375 134.765625 L 110.25 136.5625 L 107.09375 138.78125 L 102.96875 140.015625 L 99.4375 141.4375 L 95.09375 142.671875 L 91.125 141.328125 L 89.5 137.984375 L 88.84375 132.0625 L 89.375 126.53125 L 89.125 122.5625 L 89.296875 118.421875 L 88.859375 114.859375 L 90.984375 110.28125 L 94.6875 106.5 L 97.640625 104.296875 L 103.3125 98.515625 L 105.4375 95.703125 L 106.78125 92.140625 L 108.5 86 L 108.796875 77.484375 L 106.859375 64.265625 L 103.84375 58.953125 L 100.046875 54.265625 L 94.46875 49.578125 L 90.671875 47.625 L 83.53125 44.75 L 75.609375 43.453125 L 63.546875 43.578125 L 59.21875 44.21875 L 55.65625 45.25 L 52.90625 46.671875 L 48.96875 48.09375 L 42.109375 52.53125 L 37.03125 58.3125 L 33.53125 65.265625 L 31.0625 72.421875 L 30.53125 78.15625 L 31.234375 88.625 L 35.0625 95.5 L 36.28125 98.453125 L 39.078125 101.578125 L 44.265625 106.046875 L 48.0625 108 L 51.25 111.125 L 53.671875 115.640625 L 53.515625 119.59375 L 53.765625 123.546875 L 53.21875 127.5 L 54.125 138.578125 L 51.59375 142.5625 L 48.046875 143.78125 L 32.984375 138.8125 L 25.8125 134.734375 L 19.828125 130.25 L 14.21875 124.78125 L 7.21875 115.171875 L 5.578125 111.828125 L 4.15625 107.6875 L 2.140625 104.15625 L -0.359375 92.53125 L -1.5 78.703125 Z M -0.8125 68.8125 "/></g></g></g><g fill="#1e456a" fill-opacity="1"><g transform="translate(1570.498683, 1088.21631)"><g><path d="M -11.390625 67.84375 L -10.375 64.015625 L -10.15625 60.046875 L -9.234375 55.578125 L -7.859375 51.984375 L -7.1875 43.90625 L -6.421875 40.421875 L -6.125 36.0625 L -3.703125 22.03125 L -0.234375 16.578125 L 5.28125 15.84375 L 9.640625 16.15625 L 23.03125 18.875 L 27.015625 18.921875 L 30.65625 19.890625 L 62.265625 25.109375 L 65.875 25.09375 L 81.84375 27.8125 L 85.484375 28.796875 L 89.6875 28.875 L 108.765625 32.296875 L 113.140625 32.390625 L 121.0625 34.25 L 128.546875 35.046875 L 132.3125 37.84375 L 133.21875 42.1875 L 132.390625 46.046875 L 132.15625 50.03125 L 131.203125 53.46875 L 131.421875 57.3125 L 130.203125 61.125 L 128.046875 77.1875 L 127.03125 81.03125 L 126.703125 84.390625 L 125.6875 88.21875 L 125.390625 92.59375 L 123.078125 108.421875 L 121.75 111.8125 L 121.09375 115.921875 L 118.90625 119.578125 L 114.921875 120.75 L 103.140625 119.265625 L 99.265625 118.453125 L 95.34375 118.03125 L 92.125 115.53125 L 90.4375 111.046875 L 90.828125 107.3125 L 95.671875 79.453125 L 95.46875 75.625 L 96.265625 71.953125 L 95.390625 67.390625 L 91.953125 65.046875 L 85.90625 64.078125 L 79.609375 64.703125 L 77.1875 68.515625 L 75.78125 79.90625 L 73.890625 88 L 73.640625 92.171875 L 71.8125 103.703125 L 68.546875 107.78125 L 62.765625 108.84375 L 45.28125 105.484375 L 41.59375 103.5 L 40.671875 99.34375 L 41.578125 94.890625 L 41.796875 90.90625 L 43.265625 82.9375 L 44.0625 75.453125 L 45.640625 69.296875 L 46.375 63.421875 L 44.78125 59.5625 L 40.96875 57.140625 L 28.671875 55.1875 L 24.890625 56.203125 L 22.296875 60 L 22 64.34375 L 20.828125 67.96875 L 20.34375 72.296875 L 19.3125 76.140625 L 19.09375 82.703125 L 17.296875 92.640625 L 16.125 96.25 L 15.8125 100.796875 L 13.390625 104.625 L 9.171875 106.140625 L -10.5625 103.015625 L -14.328125 100.21875 L -15.4375 95.828125 Z M -11.390625 67.84375 "/></g></g></g><g fill="#1e456a" fill-opacity="1"><g transform="translate(1556.979112, 1184.262585)"><g><path d="M -17.90625 50.09375 L -14.109375 42.8125 L -9.109375 36.296875 L -6.78125 32.890625 L -3.9375 29.875 L -0.28125 28.140625 L 5.96875 22.875 L 9.578125 21.328125 L 12.875 19.46875 L 20.96875 18.125 L 24.734375 18.09375 L 28.75 18.53125 L 32.6875 19.171875 L 36.15625 21.953125 L 36.578125 25.8125 L 32.6875 40.5625 L 30.96875 43.9375 L 30.265625 47.46875 L 27.5625 50.734375 L 18.796875 54.796875 L 15.703125 57.3125 L 12.984375 59.96875 L 8.96875 69.28125 L 8.453125 72.859375 L 6.96875 78.8125 L 7.75 86.125 L 9.796875 89.46875 L 14.015625 92.46875 L 19.078125 92.875 L 22.109375 91.125 L 27.484375 85.390625 L 40.328125 56.890625 L 44.765625 50.84375 L 55.828125 40.265625 L 66.703125 36.0625 L 74.265625 35.171875 L 82.21875 36.25 L 88.109375 37.953125 L 97.15625 41.46875 L 106.4375 48.15625 L 113.171875 57.578125 L 116.5 68.59375 L 118.21875 76.21875 L 118.1875 84.078125 L 117.671875 87.65625 L 116.640625 91.484375 L 116.453125 96 L 111.4375 110.359375 L 107.578125 117.21875 L 100.625 126.625 L 88 136.296875 L 81.03125 138.609375 L 69.546875 140.765625 L 65.84375 140 L 62.03125 139.59375 L 59.3125 137.078125 L 57.8125 132.65625 L 59.265625 129.375 L 60.46875 125.609375 L 62.5 120.640625 L 64.5625 111.5625 L 68.34375 108.203125 L 73 106.578125 L 76.671875 104.21875 L 80 101.5625 L 82.046875 98.484375 L 84.71875 92.6875 L 86.453125 86.59375 L 86.796875 82.96875 L 86.046875 79.421875 L 84.890625 75.921875 L 83.15625 72.875 L 78.390625 70.3125 L 72.484375 69.265625 L 68.9375 71.25 L 63.328125 77.125 L 58.078125 86.4375 L 56.328125 91.90625 L 54.3125 95.625 L 52.921875 99.328125 L 51.140625 102.90625 L 41.921875 116.140625 L 38.765625 118.859375 L 36.296875 121.40625 L 32.203125 123.84375 L 24.984375 126.921875 L 21.328125 128.03125 L 9.484375 127.375 L 3.34375 125.796875 L -5.703125 121.671875 L -8.546875 119.515625 L -11.578125 117.296875 L -15.0625 113.90625 L -17.09375 111.171875 L -21 103.90625 L -24.609375 88.625 L -25.15625 84.53125 L -24.453125 81.015625 L -24.765625 76.765625 L -24.140625 72.8125 L -23.859375 68.75 L -23.015625 64.875 Z M -17.90625 50.09375 "/></g></g></g></svg>